<svg version="1.1" id="Layer_1" xmlns="http://www.w3.org/2000/svg" xmlns:xlink="http://www.w3.org/1999/xlink" x="0px" y="0px"
	 width="100%" viewBox="0 0 64 64" enable-background="new 0 0 64 64" xml:space="preserve">
<path fill="#000000" opacity="1.000000" stroke="none" 
	d="
M39.000011,65.000000 
	C26.024467,65.000000 13.548928,65.000000 1.036694,65.000000 
	C1.036694,43.732925 1.036694,22.465776 1.036694,1.099313 
	C22.224968,1.099313 43.450554,1.099313 64.838074,1.099313 
	C64.838074,22.332338 64.838074,43.666061 64.838074,65.000000 
	C56.466721,65.000000 47.983368,65.000000 39.000011,65.000000 
M54.938377,27.448534 
	C44.904705,24.455353 44.827290,24.223351 46.880112,14.350354 
	C47.495182,11.392180 46.799725,9.209715 43.299614,7.847792 
	C38.486790,5.975084 35.530621,7.521759 33.202682,11.484279 
	C32.157043,13.264124 31.355295,15.187255 30.507315,16.914146 
	C27.109926,16.039204 24.010527,14.683372 20.883013,14.615078 
	C18.457136,14.562108 15.383142,15.513038 13.757529,17.161758 
	C12.595270,18.340538 12.796690,21.582594 13.405702,23.596811 
	C14.080395,25.828253 15.777988,27.815022 17.273647,29.716839 
	C19.036503,31.958412 19.091724,33.958950 17.329020,36.197319 
	C15.219535,38.876045 12.996152,41.516075 11.282058,44.442295 
	C9.125764,48.123417 11.588684,52.402500 15.833532,51.826302 
	C19.718754,51.298920 23.494146,49.512154 27.151897,47.902939 
	C30.033888,46.635017 32.219704,46.308262 34.052132,49.459747 
	C35.431061,51.831280 36.775185,54.541454 38.881432,56.076279 
	C40.743916,57.433475 43.699780,57.919518 46.042866,57.651840 
	C46.880482,57.556145 48.042381,54.042599 47.827618,52.235058 
	C47.307873,47.860600 46.065212,43.572037 45.190098,39.594975 
	C48.409492,38.249954 50.982204,37.291836 53.451900,36.117138 
	C57.613136,34.137867 58.045685,32.255398 54.938377,27.448534 
z"/>
<path fill="#FFC90E" opacity="1.000000" stroke="none" 
	d="
M55.224957,27.729763 
	C58.045685,32.255398 57.613136,34.137867 53.451900,36.117138 
	C50.982204,37.291836 48.409492,38.249954 45.190098,39.594975 
	C46.065212,43.572037 47.307873,47.860600 47.827618,52.235058 
	C48.042381,54.042599 46.880482,57.556145 46.042866,57.651840 
	C43.699780,57.919518 40.743916,57.433475 38.881432,56.076279 
	C36.775185,54.541454 35.431061,51.831280 34.052132,49.459747 
	C32.219704,46.308262 30.033888,46.635017 27.151897,47.902939 
	C23.494146,49.512154 19.718754,51.298920 15.833532,51.826302 
	C11.588684,52.402500 9.125764,48.123417 11.282058,44.442295 
	C12.996152,41.516075 15.219535,38.876045 17.329020,36.197319 
	C19.091724,33.958950 19.036503,31.958412 17.273647,29.716839 
	C15.777988,27.815022 14.080395,25.828253 13.405702,23.596811 
	C12.796690,21.582594 12.595270,18.340538 13.757529,17.161758 
	C15.383142,15.513038 18.457136,14.562108 20.883013,14.615078 
	C24.010527,14.683372 27.109926,16.039204 30.507315,16.914146 
	C31.355295,15.187255 32.157043,13.264124 33.202682,11.484279 
	C35.530621,7.521759 38.486790,5.975084 43.299614,7.847792 
	C46.799725,9.209715 47.495182,11.392180 46.880112,14.350354 
	C44.827290,24.223351 44.904705,24.455353 55.224957,27.729763 
z"/>
</svg>